<svg xmlns="http://www.w3.org/2000/svg" width="980" height="350" viewBox="0 0 980 350">
<rect width="100%" height="100%" fill="white"/>
<style>text{font-family:ui-sans-serif,system-ui,sans-serif;fill:#222}.title{font-size:22px;font-weight:700}.sub{font-size:13px;fill:#555}.label{font-size:14px}.value{font-size:13px;font-weight:700}.axis{font-size:11px;fill:#666}</style>
<text class="title" x="24" y="32">Overall policy ranking</text>
<text class="sub" x="24" y="54">Macro score, equally weighting the other 14 policy variants</text>
<line x1="260.0" x2="260.0" y1="70" y2="310" stroke="#ddd"/>
<text class="axis" x="260.0" y="330" text-anchor="middle">0.35</text>
<line x1="368.3333333333334" x2="368.3333333333334" y1="70" y2="310" stroke="#ddd"/>
<text class="axis" x="368.3333333333334" y="330" text-anchor="middle">0.40</text>
<line x1="476.6666666666667" x2="476.6666666666667" y1="70" y2="310" stroke="#ddd"/>
<text class="axis" x="476.6666666666667" y="330" text-anchor="middle">0.45</text>
<line x1="585.0" x2="585.0" y1="70" y2="310" stroke="#ddd"/>
<text class="axis" x="585.0" y="330" text-anchor="middle">0.50</text>
<line x1="693.3333333333334" x2="693.3333333333334" y1="70" y2="310" stroke="#ddd"/>
<text class="axis" x="693.3333333333334" y="330" text-anchor="middle">0.55</text>
<line x1="801.6666666666666" x2="801.6666666666666" y1="70" y2="310" stroke="#ddd"/>
<text class="axis" x="801.6666666666666" y="330" text-anchor="middle">0.60</text>
<line x1="910.0" x2="910.0" y1="70" y2="310" stroke="#ddd"/>
<text class="axis" x="910.0" y="330" text-anchor="middle">0.65</text>
<text class="label" x="24" y="103">1. c14000_t0.5</text>
<rect x="260.0" y="89" width="367.58219401041674" height="20" rx="3" fill="#14a37f"/>
<text class="value" x="635.5821940104167" y="104">0.5197</text>
<text class="label" x="24" y="145">2. c14000_t0.25</text>
<rect x="260.0" y="131" width="357.00276692708326" height="20" rx="3" fill="#14a37f"/>
<text class="value" x="625.0027669270833" y="146">0.5148</text>
<text class="label" x="24" y="187">3. c14000_greedy</text>
<rect x="260.0" y="173" width="335.05045572916674" height="20" rx="3" fill="#14a37f"/>
<text class="value" x="603.0504557291667" y="188">0.5046</text>
<text class="label" x="24" y="229">4. c14000_t0.75</text>
<rect x="260.0" y="215" width="304.89908854166663" height="20" rx="3" fill="#14a37f"/>
<text class="value" x="572.8990885416666" y="230">0.4907</text>
<text class="label" x="24" y="271">5. c14000_t1</text>
<rect x="260.0" y="257" width="260.46549479166674" height="20" rx="3" fill="#14a37f"/>
<text class="value" x="528.4654947916667" y="272">0.4702</text>
</svg>
